<svg width="13" height="13" viewBox="0 0 13 13" fill="none" xmlns="http://www.w3.org/2000/svg">
<path d="M6.41999 12.6667C6.74191 12.6663 7.05079 12.5394 7.27999 12.3133L11.5533 8.03335C11.663 7.92432 11.7313 7.78056 11.7467 7.62668L12.3333 1.39335C12.3423 1.2957 12.3296 1.19728 12.2962 1.10509C12.2628 1.0129 12.2095 0.929223 12.14 0.860015C12.0708 0.790549 11.9871 0.737207 11.8949 0.703789C11.8027 0.670371 11.7043 0.657701 11.6067 0.666681L5.37332 1.25335C5.21944 1.26868 5.07568 1.33702 4.96665 1.44668L0.686651 5.72001C0.459895 5.94745 0.332561 6.25552 0.332561 6.57668C0.332561 6.89785 0.459895 7.20591 0.686651 7.43335L5.56665 12.3133C5.7934 12.539 6.10008 12.666 6.41999 12.6667ZM10.42 7.26002L6.41999 11.26L1.71999 6.56001L5.71999 2.56001L10.9267 2.07335L10.42 7.26002Z" fill="#EC441E"/>
<path d="M8 6C7.44772 6 7 5.55228 7 5C7 4.44772 7.44772 4 8 4C8.55228 4 9 4.44772 9 5C9 5.55228 8.55228 6 8 6Z" fill="#EC441E"/>
</svg>
